<svg width="731" height="716" viewBox="0 0 731 716" fill="none" xmlns="http://www.w3.org/2000/svg">
<path fill-rule="evenodd" clip-rule="evenodd" d="M8.09686 172.194C55.6469 172.194 94.1937 133.647 94.1937 86.0969C94.1937 38.5469 55.6469 0 8.09686 0C-39.4531 0 -78 38.5469 -78 86.0969C-78 133.647 -39.4531 172.194 8.09686 172.194ZM157 821C229.164 821 293.732 788.472 336.84 737.279C347.418 724.715 367.517 723.508 381.075 732.778C399.865 745.625 422.589 753.138 447.069 753.138C498.015 753.138 541.359 720.596 557.451 675.165C562.641 660.513 584.007 650.101 599.55 650.101V650.101C630.782 650.101 656.101 624.782 656.101 593.55C656.101 562.318 630.782 537 599.55 537C592.7 537 586.134 538.218 580.057 540.45C561.303 547.337 529.126 550.223 512.577 539.03C493.882 526.385 471.338 519 447.069 519C436.83 519 426.898 520.314 417.433 522.784C401.51 526.938 382.925 519.031 377.156 503.62C343.78 414.466 257.802 351 157 351C149.875 351 142.824 351.317 135.86 351.938C125.7 352.844 116.943 342.672 116.943 332.471V332.471C116.943 315.137 110.307 299.352 99.4377 287.518C98.0258 285.981 99.4128 283 101.5 283V283C124.972 283 144 263.972 144 240.5C144 217.028 124.972 198 101.5 198C78.0279 198 59 217.028 59 240.5C59 244.4 59.5254 248.178 60.5094 251.766C61.9781 257.122 56.0252 266 50.4715 266V266C13.7603 266 -16 295.76 -16 332.471C-16 344.256 -12.9332 355.325 -7.55406 364.923C1.53739 381.144 3.80884 406.826 -9.32774 419.988C-51.7617 462.502 -78 521.187 -78 586C-78 715.787 27.2131 821 157 821ZM730.464 668.732C730.464 687.361 715.361 702.464 696.732 702.464C678.102 702.464 663 687.361 663 668.732C663 650.102 678.102 635 696.732 635C715.361 635 730.464 650.102 730.464 668.732Z" fill="#B3E9AC"/>
</svg>
