<svg width="1440" height="1101" viewBox="0 0 1440 1101" fill="none" xmlns="http://www.w3.org/2000/svg">
<path fill-rule="evenodd" clip-rule="evenodd" d="M1046.65 955.556C1007.19 931.064 951.422 930.107 916.803 961.067C846.812 1023.66 759.844 1069.15 661.244 1089.42C363.71 1150.59 72.924 958.975 11.7555 661.441C-49.4131 363.907 142.199 73.121 439.733 11.9524C594.593 -19.8844 747.624 16.7562 867.404 101.168C897.368 122.284 938.072 121.528 970.991 105.402C988.61 96.7707 1007.59 90.203 1027.7 86.0691C1155.91 59.7111 1281.22 142.278 1307.57 270.489C1314.98 306.508 1313.79 342.298 1305.4 375.728C1291.7 430.343 1313.44 508.076 1355.22 545.83C1394.46 581.292 1423.16 629.117 1434.63 684.893C1463.26 824.193 1373.56 960.333 1234.25 988.971C1167.09 1002.78 1100.65 989.072 1046.65 955.556Z" fill="white"/>
</svg>
